<?xml version="1.0" encoding="utf-8" standalone="no"?>
<!DOCTYPE svg PUBLIC "-//W3C//DTD SVG 1.1//EN"
  "http://www.w3.org/Graphics/SVG/1.1/DTD/svg11.dtd">
<svg xmlns:xlink="http://www.w3.org/1999/xlink" width="510.459375pt" height="162.557813pt" viewBox="0 0 510.459375 162.557813" xmlns="http://www.w3.org/2000/svg" version="1.1">
 <metadata>
  <rdf:RDF xmlns:dc="http://purl.org/dc/elements/1.1/" xmlns:cc="http://creativecommons.org/ns#" xmlns:rdf="http://www.w3.org/1999/02/22-rdf-syntax-ns#">
   <cc:Work>
    <dc:type rdf:resource="http://purl.org/dc/dcmitype/StillImage"/>
    <dc:date>2023-08-24T14:42:27.935786</dc:date>
    <dc:format>image/svg+xml</dc:format>
    <dc:creator>
     <cc:Agent>
      <dc:title>Matplotlib v3.5.2, https://matplotlib.org/</dc:title>
     </cc:Agent>
    </dc:creator>
   </cc:Work>
  </rdf:RDF>
 </metadata>
 <defs>
  <style type="text/css">*{stroke-linejoin: round; stroke-linecap: butt}</style>
 </defs>
 <g id="figure_1">
  <g id="patch_1">
   <path d="M 0 162.557813 
L 510.459375 162.557813 
L 510.459375 0 
L 0 0 
z
" style="fill: #ffffff"/>
  </g>
  <g id="axes_1">
   <g id="patch_2">
    <path d="M 46.849688 118.08 
L 493.249687 118.08 
L 493.249687 7.2 
L 46.849688 7.2 
z
" style="fill: #ffffff"/>
   </g>
   <g id="matplotlib.axis_1">
    <g id="xtick_1">
     <g id="line2d_1">
      <path d="M 46.849688 118.08 
L 46.849688 7.2 
" clip-path="url(#p8b7e93dcfa)" style="fill: none; stroke: #cccccc; stroke-linecap: round"/>
     </g>
     <g id="text_1">
      <!-- 0 -->
      <g style="fill: #262626" transform="translate(43.513125 136.169375)scale(0.12 -0.12)">
       <defs>
        <path id="ArialMT-30" d="M 266 2259 
Q 266 3072 433 3567 
Q 600 4063 929 4331 
Q 1259 4600 1759 4600 
Q 2128 4600 2406 4451 
Q 2684 4303 2865 4023 
Q 3047 3744 3150 3342 
Q 3253 2941 3253 2259 
Q 3253 1453 3087 958 
Q 2922 463 2592 192 
Q 2263 -78 1759 -78 
Q 1097 -78 719 397 
Q 266 969 266 2259 
z
M 844 2259 
Q 844 1131 1108 757 
Q 1372 384 1759 384 
Q 2147 384 2411 759 
Q 2675 1134 2675 2259 
Q 2675 3391 2411 3762 
Q 2147 4134 1753 4134 
Q 1366 4134 1134 3806 
Q 844 3388 844 2259 
z
" transform="scale(0.015625)"/>
       </defs>
       <use xlink:href="#ArialMT-30"/>
      </g>
     </g>
    </g>
    <g id="xtick_2">
     <g id="line2d_2">
      <path d="M 102.649687 118.08 
L 102.649687 7.2 
" clip-path="url(#p8b7e93dcfa)" style="fill: none; stroke: #cccccc; stroke-linecap: round"/>
     </g>
     <g id="text_2">
      <!-- 20 -->
      <g style="fill: #262626" transform="translate(95.976562 136.169375)scale(0.12 -0.12)">
       <defs>
        <path id="ArialMT-32" d="M 3222 541 
L 3222 0 
L 194 0 
Q 188 203 259 391 
Q 375 700 629 1000 
Q 884 1300 1366 1694 
Q 2113 2306 2375 2664 
Q 2638 3022 2638 3341 
Q 2638 3675 2398 3904 
Q 2159 4134 1775 4134 
Q 1369 4134 1125 3890 
Q 881 3647 878 3216 
L 300 3275 
Q 359 3922 746 4261 
Q 1134 4600 1788 4600 
Q 2447 4600 2831 4234 
Q 3216 3869 3216 3328 
Q 3216 3053 3103 2787 
Q 2991 2522 2730 2228 
Q 2469 1934 1863 1422 
Q 1356 997 1212 845 
Q 1069 694 975 541 
L 3222 541 
z
" transform="scale(0.015625)"/>
       </defs>
       <use xlink:href="#ArialMT-32"/>
       <use xlink:href="#ArialMT-30" x="55.615234"/>
      </g>
     </g>
    </g>
    <g id="xtick_3">
     <g id="line2d_3">
      <path d="M 158.449687 118.08 
L 158.449687 7.2 
" clip-path="url(#p8b7e93dcfa)" style="fill: none; stroke: #cccccc; stroke-linecap: round"/>
     </g>
     <g id="text_3">
      <!-- 40 -->
      <g style="fill: #262626" transform="translate(151.776562 136.169375)scale(0.12 -0.12)">
       <defs>
        <path id="ArialMT-34" d="M 2069 0 
L 2069 1097 
L 81 1097 
L 81 1613 
L 2172 4581 
L 2631 4581 
L 2631 1613 
L 3250 1613 
L 3250 1097 
L 2631 1097 
L 2631 0 
L 2069 0 
z
M 2069 1613 
L 2069 3678 
L 634 1613 
L 2069 1613 
z
" transform="scale(0.015625)"/>
       </defs>
       <use xlink:href="#ArialMT-34"/>
       <use xlink:href="#ArialMT-30" x="55.615234"/>
      </g>
     </g>
    </g>
    <g id="xtick_4">
     <g id="line2d_4">
      <path d="M 214.249687 118.08 
L 214.249687 7.2 
" clip-path="url(#p8b7e93dcfa)" style="fill: none; stroke: #cccccc; stroke-linecap: round"/>
     </g>
     <g id="text_4">
      <!-- 60 -->
      <g style="fill: #262626" transform="translate(207.576562 136.169375)scale(0.12 -0.12)">
       <defs>
        <path id="ArialMT-36" d="M 3184 3459 
L 2625 3416 
Q 2550 3747 2413 3897 
Q 2184 4138 1850 4138 
Q 1581 4138 1378 3988 
Q 1113 3794 959 3422 
Q 806 3050 800 2363 
Q 1003 2672 1297 2822 
Q 1591 2972 1913 2972 
Q 2475 2972 2870 2558 
Q 3266 2144 3266 1488 
Q 3266 1056 3080 686 
Q 2894 316 2569 119 
Q 2244 -78 1831 -78 
Q 1128 -78 684 439 
Q 241 956 241 2144 
Q 241 3472 731 4075 
Q 1159 4600 1884 4600 
Q 2425 4600 2770 4297 
Q 3116 3994 3184 3459 
z
M 888 1484 
Q 888 1194 1011 928 
Q 1134 663 1356 523 
Q 1578 384 1822 384 
Q 2178 384 2434 671 
Q 2691 959 2691 1453 
Q 2691 1928 2437 2201 
Q 2184 2475 1800 2475 
Q 1419 2475 1153 2201 
Q 888 1928 888 1484 
z
" transform="scale(0.015625)"/>
       </defs>
       <use xlink:href="#ArialMT-36"/>
       <use xlink:href="#ArialMT-30" x="55.615234"/>
      </g>
     </g>
    </g>
    <g id="xtick_5">
     <g id="line2d_5">
      <path d="M 270.049688 118.08 
L 270.049688 7.2 
" clip-path="url(#p8b7e93dcfa)" style="fill: none; stroke: #cccccc; stroke-linecap: round"/>
     </g>
     <g id="text_5">
      <!-- 80 -->
      <g style="fill: #262626" transform="translate(263.376562 136.169375)scale(0.12 -0.12)">
       <defs>
        <path id="ArialMT-38" d="M 1131 2484 
Q 781 2613 612 2850 
Q 444 3088 444 3419 
Q 444 3919 803 4259 
Q 1163 4600 1759 4600 
Q 2359 4600 2725 4251 
Q 3091 3903 3091 3403 
Q 3091 3084 2923 2848 
Q 2756 2613 2416 2484 
Q 2838 2347 3058 2040 
Q 3278 1734 3278 1309 
Q 3278 722 2862 322 
Q 2447 -78 1769 -78 
Q 1091 -78 675 323 
Q 259 725 259 1325 
Q 259 1772 486 2073 
Q 713 2375 1131 2484 
z
M 1019 3438 
Q 1019 3113 1228 2906 
Q 1438 2700 1772 2700 
Q 2097 2700 2305 2904 
Q 2513 3109 2513 3406 
Q 2513 3716 2298 3927 
Q 2084 4138 1766 4138 
Q 1444 4138 1231 3931 
Q 1019 3725 1019 3438 
z
M 838 1322 
Q 838 1081 952 856 
Q 1066 631 1291 507 
Q 1516 384 1775 384 
Q 2178 384 2440 643 
Q 2703 903 2703 1303 
Q 2703 1709 2433 1975 
Q 2163 2241 1756 2241 
Q 1359 2241 1098 1978 
Q 838 1716 838 1322 
z
" transform="scale(0.015625)"/>
       </defs>
       <use xlink:href="#ArialMT-38"/>
       <use xlink:href="#ArialMT-30" x="55.615234"/>
      </g>
     </g>
    </g>
    <g id="xtick_6">
     <g id="line2d_6">
      <path d="M 325.849688 118.08 
L 325.849688 7.2 
" clip-path="url(#p8b7e93dcfa)" style="fill: none; stroke: #cccccc; stroke-linecap: round"/>
     </g>
     <g id="text_6">
      <!-- 100 -->
      <g style="fill: #262626" transform="translate(315.84 136.169375)scale(0.12 -0.12)">
       <defs>
        <path id="ArialMT-31" d="M 2384 0 
L 1822 0 
L 1822 3584 
Q 1619 3391 1289 3197 
Q 959 3003 697 2906 
L 697 3450 
Q 1169 3672 1522 3987 
Q 1875 4303 2022 4600 
L 2384 4600 
L 2384 0 
z
" transform="scale(0.015625)"/>
       </defs>
       <use xlink:href="#ArialMT-31"/>
       <use xlink:href="#ArialMT-30" x="55.615234"/>
       <use xlink:href="#ArialMT-30" x="111.230469"/>
      </g>
     </g>
    </g>
    <g id="xtick_7">
     <g id="line2d_7">
      <path d="M 381.649688 118.08 
L 381.649688 7.2 
" clip-path="url(#p8b7e93dcfa)" style="fill: none; stroke: #cccccc; stroke-linecap: round"/>
     </g>
     <g id="text_7">
      <!-- 120 -->
      <g style="fill: #262626" transform="translate(371.64 136.169375)scale(0.12 -0.12)">
       <use xlink:href="#ArialMT-31"/>
       <use xlink:href="#ArialMT-32" x="55.615234"/>
       <use xlink:href="#ArialMT-30" x="111.230469"/>
      </g>
     </g>
    </g>
    <g id="xtick_8">
     <g id="line2d_8">
      <path d="M 437.449688 118.08 
L 437.449688 7.2 
" clip-path="url(#p8b7e93dcfa)" style="fill: none; stroke: #cccccc; stroke-linecap: round"/>
     </g>
     <g id="text_8">
      <!-- 140 -->
      <g style="fill: #262626" transform="translate(427.44 136.169375)scale(0.12 -0.12)">
       <use xlink:href="#ArialMT-31"/>
       <use xlink:href="#ArialMT-34" x="55.615234"/>
       <use xlink:href="#ArialMT-30" x="111.230469"/>
      </g>
     </g>
    </g>
    <g id="xtick_9">
     <g id="line2d_9">
      <path d="M 493.249687 118.08 
L 493.249687 7.2 
" clip-path="url(#p8b7e93dcfa)" style="fill: none; stroke: #cccccc; stroke-linecap: round"/>
     </g>
     <g id="text_9">
      <!-- 160 -->
      <g style="fill: #262626" transform="translate(483.24 136.169375)scale(0.12 -0.12)">
       <use xlink:href="#ArialMT-31"/>
       <use xlink:href="#ArialMT-36" x="55.615234"/>
       <use xlink:href="#ArialMT-30" x="111.230469"/>
      </g>
     </g>
    </g>
    <g id="text_10">
     <!-- Residue index -->
     <g style="fill: #262626" transform="translate(225.690469 152.575312)scale(0.14 -0.14)">
      <defs>
       <path id="ArialMT-52" d="M 503 0 
L 503 4581 
L 2534 4581 
Q 3147 4581 3465 4457 
Q 3784 4334 3975 4021 
Q 4166 3709 4166 3331 
Q 4166 2844 3850 2509 
Q 3534 2175 2875 2084 
Q 3116 1969 3241 1856 
Q 3506 1613 3744 1247 
L 4541 0 
L 3778 0 
L 3172 953 
Q 2906 1366 2734 1584 
Q 2563 1803 2427 1890 
Q 2291 1978 2150 2013 
Q 2047 2034 1813 2034 
L 1109 2034 
L 1109 0 
L 503 0 
z
M 1109 2559 
L 2413 2559 
Q 2828 2559 3062 2645 
Q 3297 2731 3419 2920 
Q 3541 3109 3541 3331 
Q 3541 3656 3305 3865 
Q 3069 4075 2559 4075 
L 1109 4075 
L 1109 2559 
z
" transform="scale(0.015625)"/>
       <path id="ArialMT-65" d="M 2694 1069 
L 3275 997 
Q 3138 488 2766 206 
Q 2394 -75 1816 -75 
Q 1088 -75 661 373 
Q 234 822 234 1631 
Q 234 2469 665 2931 
Q 1097 3394 1784 3394 
Q 2450 3394 2872 2941 
Q 3294 2488 3294 1666 
Q 3294 1616 3291 1516 
L 816 1516 
Q 847 969 1125 678 
Q 1403 388 1819 388 
Q 2128 388 2347 550 
Q 2566 713 2694 1069 
z
M 847 1978 
L 2700 1978 
Q 2663 2397 2488 2606 
Q 2219 2931 1791 2931 
Q 1403 2931 1139 2672 
Q 875 2413 847 1978 
z
" transform="scale(0.015625)"/>
       <path id="ArialMT-73" d="M 197 991 
L 753 1078 
Q 800 744 1014 566 
Q 1228 388 1613 388 
Q 2000 388 2187 545 
Q 2375 703 2375 916 
Q 2375 1106 2209 1216 
Q 2094 1291 1634 1406 
Q 1016 1563 777 1677 
Q 538 1791 414 1992 
Q 291 2194 291 2438 
Q 291 2659 392 2848 
Q 494 3038 669 3163 
Q 800 3259 1026 3326 
Q 1253 3394 1513 3394 
Q 1903 3394 2198 3281 
Q 2494 3169 2634 2976 
Q 2775 2784 2828 2463 
L 2278 2388 
Q 2241 2644 2061 2787 
Q 1881 2931 1553 2931 
Q 1166 2931 1000 2803 
Q 834 2675 834 2503 
Q 834 2394 903 2306 
Q 972 2216 1119 2156 
Q 1203 2125 1616 2013 
Q 2213 1853 2448 1751 
Q 2684 1650 2818 1456 
Q 2953 1263 2953 975 
Q 2953 694 2789 445 
Q 2625 197 2315 61 
Q 2006 -75 1616 -75 
Q 969 -75 630 194 
Q 291 463 197 991 
z
" transform="scale(0.015625)"/>
       <path id="ArialMT-69" d="M 425 3934 
L 425 4581 
L 988 4581 
L 988 3934 
L 425 3934 
z
M 425 0 
L 425 3319 
L 988 3319 
L 988 0 
L 425 0 
z
" transform="scale(0.015625)"/>
       <path id="ArialMT-64" d="M 2575 0 
L 2575 419 
Q 2259 -75 1647 -75 
Q 1250 -75 917 144 
Q 584 363 401 755 
Q 219 1147 219 1656 
Q 219 2153 384 2558 
Q 550 2963 881 3178 
Q 1213 3394 1622 3394 
Q 1922 3394 2156 3267 
Q 2391 3141 2538 2938 
L 2538 4581 
L 3097 4581 
L 3097 0 
L 2575 0 
z
M 797 1656 
Q 797 1019 1065 703 
Q 1334 388 1700 388 
Q 2069 388 2326 689 
Q 2584 991 2584 1609 
Q 2584 2291 2321 2609 
Q 2059 2928 1675 2928 
Q 1300 2928 1048 2622 
Q 797 2316 797 1656 
z
" transform="scale(0.015625)"/>
       <path id="ArialMT-75" d="M 2597 0 
L 2597 488 
Q 2209 -75 1544 -75 
Q 1250 -75 995 37 
Q 741 150 617 320 
Q 494 491 444 738 
Q 409 903 409 1263 
L 409 3319 
L 972 3319 
L 972 1478 
Q 972 1038 1006 884 
Q 1059 663 1231 536 
Q 1403 409 1656 409 
Q 1909 409 2131 539 
Q 2353 669 2445 892 
Q 2538 1116 2538 1541 
L 2538 3319 
L 3100 3319 
L 3100 0 
L 2597 0 
z
" transform="scale(0.015625)"/>
       <path id="ArialMT-20" transform="scale(0.015625)"/>
       <path id="ArialMT-6e" d="M 422 0 
L 422 3319 
L 928 3319 
L 928 2847 
Q 1294 3394 1984 3394 
Q 2284 3394 2536 3286 
Q 2788 3178 2913 3003 
Q 3038 2828 3088 2588 
Q 3119 2431 3119 2041 
L 3119 0 
L 2556 0 
L 2556 2019 
Q 2556 2363 2490 2533 
Q 2425 2703 2258 2804 
Q 2091 2906 1866 2906 
Q 1506 2906 1245 2678 
Q 984 2450 984 1813 
L 984 0 
L 422 0 
z
" transform="scale(0.015625)"/>
       <path id="ArialMT-78" d="M 47 0 
L 1259 1725 
L 138 3319 
L 841 3319 
L 1350 2541 
Q 1494 2319 1581 2169 
Q 1719 2375 1834 2534 
L 2394 3319 
L 3066 3319 
L 1919 1756 
L 3153 0 
L 2463 0 
L 1781 1031 
L 1600 1309 
L 728 0 
L 47 0 
z
" transform="scale(0.015625)"/>
      </defs>
      <use xlink:href="#ArialMT-52"/>
      <use xlink:href="#ArialMT-65" x="72.216797"/>
      <use xlink:href="#ArialMT-73" x="127.832031"/>
      <use xlink:href="#ArialMT-69" x="177.832031"/>
      <use xlink:href="#ArialMT-64" x="200.048828"/>
      <use xlink:href="#ArialMT-75" x="255.664062"/>
      <use xlink:href="#ArialMT-65" x="311.279297"/>
      <use xlink:href="#ArialMT-20" x="366.894531"/>
      <use xlink:href="#ArialMT-69" x="394.677734"/>
      <use xlink:href="#ArialMT-6e" x="416.894531"/>
      <use xlink:href="#ArialMT-64" x="472.509766"/>
      <use xlink:href="#ArialMT-65" x="528.125"/>
      <use xlink:href="#ArialMT-78" x="583.740234"/>
     </g>
    </g>
   </g>
   <g id="matplotlib.axis_2">
    <g id="ytick_1">
     <g id="text_11">
      <!-- 20 -->
      <g style="fill: #262626" transform="translate(24.003438 106.121072)scale(0.12 -0.12)">
       <use xlink:href="#ArialMT-32"/>
       <use xlink:href="#ArialMT-30" x="55.615234"/>
      </g>
     </g>
    </g>
    <g id="ytick_2">
     <g id="text_12">
      <!-- 40 -->
      <g style="fill: #262626" transform="translate(24.003438 81.120222)scale(0.12 -0.12)">
       <use xlink:href="#ArialMT-34"/>
       <use xlink:href="#ArialMT-30" x="55.615234"/>
      </g>
     </g>
    </g>
    <g id="ytick_3">
     <g id="text_13">
      <!-- 60 -->
      <g style="fill: #262626" transform="translate(24.003438 56.119372)scale(0.12 -0.12)">
       <use xlink:href="#ArialMT-36"/>
       <use xlink:href="#ArialMT-30" x="55.615234"/>
      </g>
     </g>
    </g>
    <g id="ytick_4">
     <g id="text_14">
      <!-- 80 -->
      <g style="fill: #262626" transform="translate(24.003438 31.118523)scale(0.12 -0.12)">
       <use xlink:href="#ArialMT-38"/>
       <use xlink:href="#ArialMT-30" x="55.615234"/>
      </g>
     </g>
    </g>
    <g id="text_15">
     <!-- LDDT-C$\alpha$ -->
     <g style="fill: #262626" transform="translate(17.220938 92.95)rotate(-90)scale(0.14 -0.14)">
      <defs>
       <path id="ArialMT-4c" d="M 469 0 
L 469 4581 
L 1075 4581 
L 1075 541 
L 3331 541 
L 3331 0 
L 469 0 
z
" transform="scale(0.015625)"/>
       <path id="ArialMT-44" d="M 494 0 
L 494 4581 
L 2072 4581 
Q 2606 4581 2888 4516 
Q 3281 4425 3559 4188 
Q 3922 3881 4101 3404 
Q 4281 2928 4281 2316 
Q 4281 1794 4159 1391 
Q 4038 988 3847 723 
Q 3656 459 3429 307 
Q 3203 156 2883 78 
Q 2563 0 2147 0 
L 494 0 
z
M 1100 541 
L 2078 541 
Q 2531 541 2789 625 
Q 3047 709 3200 863 
Q 3416 1078 3536 1442 
Q 3656 1806 3656 2325 
Q 3656 3044 3420 3430 
Q 3184 3816 2847 3947 
Q 2603 4041 2063 4041 
L 1100 4041 
L 1100 541 
z
" transform="scale(0.015625)"/>
       <path id="ArialMT-54" d="M 1659 0 
L 1659 4041 
L 150 4041 
L 150 4581 
L 3781 4581 
L 3781 4041 
L 2266 4041 
L 2266 0 
L 1659 0 
z
" transform="scale(0.015625)"/>
       <path id="ArialMT-2d" d="M 203 1375 
L 203 1941 
L 1931 1941 
L 1931 1375 
L 203 1375 
z
" transform="scale(0.015625)"/>
       <path id="ArialMT-43" d="M 3763 1606 
L 4369 1453 
Q 4178 706 3683 314 
Q 3188 -78 2472 -78 
Q 1731 -78 1267 223 
Q 803 525 561 1097 
Q 319 1669 319 2325 
Q 319 3041 592 3573 
Q 866 4106 1370 4382 
Q 1875 4659 2481 4659 
Q 3169 4659 3637 4309 
Q 4106 3959 4291 3325 
L 3694 3184 
Q 3534 3684 3231 3912 
Q 2928 4141 2469 4141 
Q 1941 4141 1586 3887 
Q 1231 3634 1087 3207 
Q 944 2781 944 2328 
Q 944 1744 1114 1308 
Q 1284 872 1643 656 
Q 2003 441 2422 441 
Q 2931 441 3284 734 
Q 3638 1028 3763 1606 
z
" transform="scale(0.015625)"/>
       <path id="DejaVuSans-Oblique-3b1" d="M 2619 1628 
L 2622 2350 
Q 2625 3088 2069 3091 
Q 1653 3094 1394 2747 
Q 1069 2319 959 1747 
Q 825 1059 994 731 
Q 1169 397 1547 397 
Q 1966 397 2319 1063 
L 2619 1628 
z
M 2166 3578 
Q 3141 3594 3128 2584 
Q 3128 2584 3616 3500 
L 4128 3500 
L 3119 1603 
L 3109 919 
Q 3109 766 3194 638 
Q 3291 488 3391 488 
L 3669 488 
L 3575 0 
L 3228 0 
Q 2934 0 2722 263 
Q 2622 394 2619 669 
Q 2416 334 2066 50 
Q 1900 -81 1453 -78 
Q 722 -72 456 397 
Q 184 884 353 1747 
Q 534 2675 1009 3097 
Q 1544 3569 2166 3578 
z
" transform="scale(0.015625)"/>
      </defs>
      <use xlink:href="#ArialMT-4c" transform="translate(0 0.203125)"/>
      <use xlink:href="#ArialMT-44" transform="translate(55.615234 0.203125)"/>
      <use xlink:href="#ArialMT-44" transform="translate(127.832031 0.203125)"/>
      <use xlink:href="#ArialMT-54" transform="translate(200.048828 0.203125)"/>
      <use xlink:href="#ArialMT-2d" transform="translate(261.132812 0.203125)"/>
      <use xlink:href="#ArialMT-43" transform="translate(294.433594 0.203125)"/>
      <use xlink:href="#DejaVuSans-Oblique-3b1" transform="translate(366.650391 0.203125)"/>
     </g>
    </g>
   </g>
   <g id="line2d_10">
    <path d="M 46.849688 79.950641 
L 49.639688 78.834527 
L 52.429688 88.947157 
L 55.219688 93.395865 
L 58.009687 80.351293 
L 60.799688 85.159148 
L 63.589688 85.371744 
L 66.379688 77.912527 
L 69.169688 77.52 
L 71.959688 76.958519 
L 74.749687 76.044253 
L 77.539687 74.163405 
L 80.329688 76.520649 
L 83.119687 71.021767 
L 85.909688 75.640149 
L 88.699688 71.021767 
L 91.489688 50.038912 
L 94.279687 65.087336 
L 97.069688 78.648512 
L 99.859688 74.481705 
L 102.649687 80.575662 
L 105.439688 51.166766 
L 108.229688 77.718419 
L 111.019688 78.334208 
L 113.809688 87.391368 
L 116.599688 71.468211 
L 119.389688 72.919152 
L 122.179688 60.976779 
L 124.969688 72.137875 
L 127.759687 77.450556 
L 130.549688 61.79124 
L 133.339687 55.278748 
L 136.129687 62.411779 
L 138.919688 58.890145 
L 141.709688 52.605962 
L 144.499687 52.775802 
L 147.289688 53.711536 
L 150.079688 52.961084 
L 152.869687 48.699579 
L 155.659688 49.032041 
L 158.449687 64.325115 
L 161.239688 50.931796 
L 164.029688 45.227237 
L 166.819687 68.314608 
L 169.609688 77.193193 
L 172.399687 48.12086 
L 175.189687 52.376171 
L 177.979688 73.700428 
L 180.769688 72.389902 
L 183.559687 72.658723 
L 186.349688 81.686811 
L 189.139687 72.389902 
L 191.929688 75.414196 
L 194.719688 76.661058 
L 197.509687 79.950641 
L 200.299688 66.85898 
L 203.089688 67.89666 
L 205.879687 70.065103 
L 208.669688 64.325115 
L 211.459688 45.385066 
L 214.249687 58.227347 
L 217.039688 45.574473 
L 219.829687 49.378947 
L 222.619687 52.605962 
L 225.409688 50.688286 
L 228.199687 55.756269 
L 230.989688 51.303832 
L 233.779688 51.103501 
L 236.569687 57.078488 
L 239.359688 54.626499 
L 242.149688 55.310378 
L 244.939687 62.812965 
L 247.729688 78.261393 
L 250.519688 54.7094 
L 253.309687 72.137871 
L 256.099688 81.289974 
L 258.889687 78.626443 
L 261.679688 85.329923 
L 264.469688 75.953413 
L 267.259687 86.997446 
L 270.049688 87.112342 
L 272.839688 74.742129 
L 275.629687 84.9224 
L 278.419688 82.081393 
L 281.209688 72.137875 
L 283.999687 60.226612 
L 286.789688 82.470887 
L 289.579687 84.001706 
L 292.369687 73.653783 
L 295.159688 76.274044 
L 297.949687 84.780355 
L 300.739688 89.716598 
L 303.529688 81.438786 
L 306.319688 74.435746 
L 309.109688 79.47714 
L 311.899688 50.120082 
L 314.689688 52.961084 
L 317.479688 74.023716 
L 320.269688 86.825874 
L 323.059687 86.461277 
L 325.849688 77.430394 
L 328.639688 78.045092 
L 331.429688 74.298856 
L 334.219688 76.131064 
L 337.009688 83.770212 
L 339.799688 82.034042 
L 342.589688 79.156122 
L 345.379688 82.604034 
L 348.169688 87.101307 
L 350.959688 90.508432 
L 353.749687 86.721701 
L 356.539688 72.788937 
L 359.329688 79.950641 
L 362.119687 84.08681 
L 367.699688 68.001702 
L 370.489688 79.290409 
L 373.279688 77.160367 
L 376.069688 66.876218 
L 378.859688 77.037405 
L 381.649688 76.108299 
L 384.439688 70.277694 
L 387.229688 65.813255 
L 390.019688 79.066173 
L 392.809687 74.268628 
L 395.599688 61.199999 
L 398.389688 59.590099 
L 401.179688 41.176177 
L 403.969688 67.797446 
L 406.759688 62.588939 
L 409.549688 81.309382 
L 412.339688 79.52833 
L 415.129688 72.389902 
L 417.919688 68.001706 
L 420.709688 79.618183 
L 423.499687 81.567078 
L 426.289688 82.880428 
L 429.079688 85.159148 
L 431.869687 83.347496 
L 434.659688 93.737874 
L 437.449688 89.566351 
L 440.239688 86.647298 
L 443.029688 96.338393 
L 445.819688 103.388937 
L 448.609688 113.04 
L 451.399688 102.787954 
L 454.189688 104.285486 
L 456.979688 108.257762 
L 459.769688 102.868085 
L 462.559687 96.177153 
L 465.349688 102.062241 
L 468.139688 99.326299 
L 470.929688 90.604408 
L 473.719688 93.10898 
L 476.509688 96.617872 
L 479.299688 88.519479 
L 482.089688 90.888513 
L 484.879688 79.950641 
L 487.669688 88.364387 
L 490.459688 90.36766 
L 493.249687 102.520852 
L 493.249687 102.520852 
" clip-path="url(#p8b7e93dcfa)" style="fill: none; stroke: #808080; stroke-width: 2; stroke-linecap: round"/>
   </g>
   <g id="line2d_11">
    <path d="M 46.849688 81.513194 
L 49.639688 65.441214 
L 52.429688 84.212151 
L 55.219688 80.314027 
L 58.009687 69.132965 
L 60.799688 81.438786 
L 63.589688 82.182863 
L 66.379688 69.760075 
L 69.169688 60.158298 
L 71.959688 68.979528 
L 74.749687 75.486201 
L 77.539687 69.533617 
L 80.329688 61.276229 
L 83.119687 57.628448 
L 85.909688 65.402732 
L 88.699688 65.069182 
L 91.489688 53.610463 
L 94.279687 64.325115 
L 97.069688 59.76766 
L 99.859688 63.543828 
L 102.649687 59.324945 
L 105.439688 49.52197 
L 108.229688 71.021762 
L 111.019688 60.014618 
L 113.809688 63.581033 
L 116.599688 53.610463 
L 119.389688 38.542984 
L 122.179688 36.422369 
L 124.969688 52.605962 
L 127.759687 39.949281 
L 130.549688 21.249324 
L 133.339687 24.027682 
L 136.129687 28.609613 
L 138.919688 18.807263 
L 141.709688 13.542134 
L 144.499687 24.242228 
L 147.289688 23.050123 
L 150.079688 16.028009 
L 152.869687 22.657024 
L 155.659688 34.403877 
L 158.449687 25.759975 
L 161.239688 21.466512 
L 164.029688 37.414472 
L 166.819687 38.393376 
L 169.609688 29.397451 
L 172.399687 46.963408 
L 175.189687 68.001706 
L 177.979688 91.669789 
L 180.769688 72.389902 
L 183.559687 75.783829 
L 186.349688 85.159148 
L 189.139687 70.373704 
L 191.929688 77.430394 
L 194.719688 79.950641 
L 197.509687 78.5919 
L 200.299688 62.635866 
L 203.089688 61.646443 
L 205.879687 72.616207 
L 208.669688 55.016284 
L 211.459688 50.120082 
L 214.249687 60.514007 
L 217.039688 40.460659 
L 219.829687 45.302723 
L 222.619687 44.011919 
L 225.409688 47.279076 
L 228.199687 53.236028 
L 230.989688 41.537871 
L 233.779688 43.891724 
L 236.569687 52.549345 
L 239.359688 46.005519 
L 242.149688 48.098596 
L 244.939687 62.812965 
L 247.729688 66.85898 
L 250.519688 63.123144 
L 253.309687 72.137871 
L 256.099688 83.075747 
L 258.889687 80.74516 
L 261.679688 82.256046 
L 264.469688 63.598342 
L 267.259687 72.903831 
L 270.049688 77.346382 
L 272.839688 73.253984 
L 275.629687 82.081393 
L 278.419688 74.268628 
L 281.209688 57.163406 
L 283.999687 61.251237 
L 286.789688 78.438496 
L 289.579687 75.899576 
L 292.369687 54.996437 
L 295.159688 72.137875 
L 297.949687 79.098342 
L 300.739688 84.508086 
L 303.529688 59.860675 
L 306.319688 58.81022 
L 309.109688 64.32511 
L 311.899688 54.381582 
L 314.689688 57.222594 
L 317.479688 58.936996 
L 320.269688 73.075412 
L 323.059687 81.252765 
L 325.849688 73.398003 
L 328.639688 75.758427 
L 331.429688 80.283103 
L 334.219688 69.186382 
L 337.009688 75.436599 
L 339.799688 70.575322 
L 342.589688 60.61736 
L 345.379688 63.145823 
L 348.169688 60.087681 
L 350.959688 57.568121 
L 353.749687 41.928518 
L 356.539688 37.631488 
L 359.329688 41.123561 
L 362.119687 33.074048 
L 364.909688 23.959148 
L 367.699688 29.397451 
L 370.489688 31.313419 
L 373.279688 18.006569 
L 376.069688 19.680734 
L 378.859688 30.425652 
L 381.649688 26.926302 
L 384.439688 21.168879 
L 387.229688 21.912951 
L 390.019688 33.663696 
L 392.809687 25.261282 
L 395.599688 12.24 
L 398.389688 31.180034 
L 401.179688 24.971918 
L 403.969688 37.414472 
L 406.759688 68.665534 
L 409.549688 76.553785 
L 412.339688 77.839082 
L 415.129688 67.349409 
L 417.919688 58.81022 
L 420.709688 76.958519 
L 423.499687 74.562527 
L 426.289688 78.485747 
L 429.079688 64.976172 
L 431.869687 67.721965 
L 434.659688 55.133618 
L 437.449688 55.911361 
L 440.239688 57.182009 
L 443.029688 71.185098 
L 445.819688 61.883621 
L 448.609688 72.597452 
L 451.399688 66.128054 
L 454.189688 54.591178 
L 456.979688 65.683851 
L 459.769688 67.450211 
L 462.559687 68.531982 
L 465.349688 69.042253 
L 468.139688 69.950301 
L 470.929688 69.296869 
L 473.719688 68.437093 
L 476.509688 78.908936 
L 479.299688 71.3818 
L 482.089688 87.763406 
L 484.879688 81.513194 
L 487.669688 88.364387 
L 490.459688 90.36766 
L 493.249687 102.520852 
L 493.249687 102.520852 
" clip-path="url(#p8b7e93dcfa)" style="fill: none; stroke: #000000; stroke-width: 2; stroke-linecap: round"/>
   </g>
   <g id="patch_3">
    <path d="M 46.849688 118.08 
L 46.849688 7.2 
" style="fill: none; stroke: #cccccc; stroke-width: 1.25; stroke-linejoin: miter; stroke-linecap: square"/>
   </g>
   <g id="patch_4">
    <path d="M 493.249687 118.08 
L 493.249687 7.2 
" style="fill: none; stroke: #cccccc; stroke-width: 1.25; stroke-linejoin: miter; stroke-linecap: square"/>
   </g>
   <g id="patch_5">
    <path d="M 46.849688 118.08 
L 493.249687 118.08 
" style="fill: none; stroke: #cccccc; stroke-width: 1.25; stroke-linejoin: miter; stroke-linecap: square"/>
   </g>
   <g id="patch_6">
    <path d="M 46.849688 7.2 
L 493.249687 7.2 
" style="fill: none; stroke: #cccccc; stroke-width: 1.25; stroke-linejoin: miter; stroke-linecap: square"/>
   </g>
   <g id="legend_1">
    <g id="line2d_12">
     <path d="M 405.127813 14.857813 
L 415.127813 14.857813 
L 425.127813 14.857813 
" style="fill: none; stroke: #808080; stroke-width: 2; stroke-linecap: round"/>
    </g>
    <g id="text_16">
     <!-- UNIPROT20 -->
     <g style="fill: #262626" transform="translate(433.127813 18.357813)scale(0.1 -0.1)">
      <defs>
       <path id="ArialMT-55" d="M 3500 4581 
L 4106 4581 
L 4106 1934 
Q 4106 1244 3950 837 
Q 3794 431 3386 176 
Q 2978 -78 2316 -78 
Q 1672 -78 1262 144 
Q 853 366 678 786 
Q 503 1206 503 1934 
L 503 4581 
L 1109 4581 
L 1109 1938 
Q 1109 1341 1220 1058 
Q 1331 775 1601 622 
Q 1872 469 2263 469 
Q 2931 469 3215 772 
Q 3500 1075 3500 1938 
L 3500 4581 
z
" transform="scale(0.015625)"/>
       <path id="ArialMT-4e" d="M 488 0 
L 488 4581 
L 1109 4581 
L 3516 984 
L 3516 4581 
L 4097 4581 
L 4097 0 
L 3475 0 
L 1069 3600 
L 1069 0 
L 488 0 
z
" transform="scale(0.015625)"/>
       <path id="ArialMT-49" d="M 597 0 
L 597 4581 
L 1203 4581 
L 1203 0 
L 597 0 
z
" transform="scale(0.015625)"/>
       <path id="ArialMT-50" d="M 494 0 
L 494 4581 
L 2222 4581 
Q 2678 4581 2919 4538 
Q 3256 4481 3484 4323 
Q 3713 4166 3852 3881 
Q 3991 3597 3991 3256 
Q 3991 2672 3619 2267 
Q 3247 1863 2275 1863 
L 1100 1863 
L 1100 0 
L 494 0 
z
M 1100 2403 
L 2284 2403 
Q 2872 2403 3119 2622 
Q 3366 2841 3366 3238 
Q 3366 3525 3220 3729 
Q 3075 3934 2838 4000 
Q 2684 4041 2272 4041 
L 1100 4041 
L 1100 2403 
z
" transform="scale(0.015625)"/>
       <path id="ArialMT-4f" d="M 309 2231 
Q 309 3372 921 4017 
Q 1534 4663 2503 4663 
Q 3138 4663 3647 4359 
Q 4156 4056 4423 3514 
Q 4691 2972 4691 2284 
Q 4691 1588 4409 1038 
Q 4128 488 3612 205 
Q 3097 -78 2500 -78 
Q 1853 -78 1343 234 
Q 834 547 571 1087 
Q 309 1628 309 2231 
z
M 934 2222 
Q 934 1394 1379 917 
Q 1825 441 2497 441 
Q 3181 441 3623 922 
Q 4066 1403 4066 2288 
Q 4066 2847 3877 3264 
Q 3688 3681 3323 3911 
Q 2959 4141 2506 4141 
Q 1863 4141 1398 3698 
Q 934 3256 934 2222 
z
" transform="scale(0.015625)"/>
      </defs>
      <use xlink:href="#ArialMT-55"/>
      <use xlink:href="#ArialMT-4e" x="72.216797"/>
      <use xlink:href="#ArialMT-49" x="144.433594"/>
      <use xlink:href="#ArialMT-50" x="172.216797"/>
      <use xlink:href="#ArialMT-52" x="238.916016"/>
      <use xlink:href="#ArialMT-4f" x="311.132812"/>
      <use xlink:href="#ArialMT-54" x="388.916016"/>
      <use xlink:href="#ArialMT-32" x="450"/>
      <use xlink:href="#ArialMT-30" x="505.615234"/>
     </g>
    </g>
    <g id="line2d_13">
     <path d="M 405.127813 28.003125 
L 415.127813 28.003125 
L 425.127813 28.003125 
" style="fill: none; stroke: #000000; stroke-width: 2; stroke-linecap: round"/>
    </g>
    <g id="text_17">
     <!-- HSDM17 -->
     <g style="fill: #262626" transform="translate(433.127813 31.503125)scale(0.1 -0.1)">
      <defs>
       <path id="ArialMT-48" d="M 513 0 
L 513 4581 
L 1119 4581 
L 1119 2700 
L 3500 2700 
L 3500 4581 
L 4106 4581 
L 4106 0 
L 3500 0 
L 3500 2159 
L 1119 2159 
L 1119 0 
L 513 0 
z
" transform="scale(0.015625)"/>
       <path id="ArialMT-53" d="M 288 1472 
L 859 1522 
Q 900 1178 1048 958 
Q 1197 738 1509 602 
Q 1822 466 2213 466 
Q 2559 466 2825 569 
Q 3091 672 3220 851 
Q 3350 1031 3350 1244 
Q 3350 1459 3225 1620 
Q 3100 1781 2813 1891 
Q 2628 1963 1997 2114 
Q 1366 2266 1113 2400 
Q 784 2572 623 2826 
Q 463 3081 463 3397 
Q 463 3744 659 4045 
Q 856 4347 1234 4503 
Q 1613 4659 2075 4659 
Q 2584 4659 2973 4495 
Q 3363 4331 3572 4012 
Q 3781 3694 3797 3291 
L 3216 3247 
Q 3169 3681 2898 3903 
Q 2628 4125 2100 4125 
Q 1550 4125 1298 3923 
Q 1047 3722 1047 3438 
Q 1047 3191 1225 3031 
Q 1400 2872 2139 2705 
Q 2878 2538 3153 2413 
Q 3553 2228 3743 1945 
Q 3934 1663 3934 1294 
Q 3934 928 3725 604 
Q 3516 281 3123 101 
Q 2731 -78 2241 -78 
Q 1619 -78 1198 103 
Q 778 284 539 648 
Q 300 1013 288 1472 
z
" transform="scale(0.015625)"/>
       <path id="ArialMT-4d" d="M 475 0 
L 475 4581 
L 1388 4581 
L 2472 1338 
Q 2622 884 2691 659 
Q 2769 909 2934 1394 
L 4031 4581 
L 4847 4581 
L 4847 0 
L 4263 0 
L 4263 3834 
L 2931 0 
L 2384 0 
L 1059 3900 
L 1059 0 
L 475 0 
z
" transform="scale(0.015625)"/>
       <path id="ArialMT-37" d="M 303 3981 
L 303 4522 
L 3269 4522 
L 3269 4084 
Q 2831 3619 2401 2847 
Q 1972 2075 1738 1259 
Q 1569 684 1522 0 
L 944 0 
Q 953 541 1156 1306 
Q 1359 2072 1739 2783 
Q 2119 3494 2547 3981 
L 303 3981 
z
" transform="scale(0.015625)"/>
      </defs>
      <use xlink:href="#ArialMT-48"/>
      <use xlink:href="#ArialMT-53" x="72.216797"/>
      <use xlink:href="#ArialMT-44" x="138.916016"/>
      <use xlink:href="#ArialMT-4d" x="211.132812"/>
      <use xlink:href="#ArialMT-31" x="294.433594"/>
      <use xlink:href="#ArialMT-37" x="350.048828"/>
     </g>
    </g>
   </g>
  </g>
 </g>
 <defs>
  <clipPath id="p8b7e93dcfa">
   <rect x="46.849688" y="7.2" width="446.4" height="110.88"/>
  </clipPath>
 </defs>
</svg>
